<svg width="92" height="79" viewBox="0 0 92 79" fill="none" xmlns="http://www.w3.org/2000/svg">
<path fill-rule="evenodd" clip-rule="evenodd" d="M65.147 11.0448L73.8589 11.0448C72.1787 19.9315 71.1579 27.5144 70.7332 34.8528C70.5801 37.4987 70.5044 40.1128 70.5033 42.7448C70.4988 53.2435 71.6802 64.0263 73.8589 78.2448H65.147V42.7448V34.8528V11.0448Z" fill="#002633"/>
<path fill-rule="evenodd" clip-rule="evenodd" d="M65.147 11.0448L73.8589 11.0448C72.1787 19.9315 71.1579 27.5144 70.7332 34.8528C70.5801 37.4987 70.5044 40.1128 70.5033 42.7448C70.4988 53.2435 71.6802 64.0263 73.8589 78.2448H65.147V42.7448V34.8528V11.0448Z" fill="#002633"/>
<path fill-rule="evenodd" clip-rule="evenodd" d="M25.7119 11L17 11C18.6802 19.8868 19.701 27.4697 20.1257 34.808C20.2788 37.4539 20.3545 40.068 20.3556 42.7C20.36 53.1987 19.1787 63.9816 17 78.2H25.7119V42.7V34.808V11Z" fill="#002633"/>
<path fill-rule="evenodd" clip-rule="evenodd" d="M79.1999 28.7119L79.2 20C70.3132 21.6802 62.7303 22.701 55.3919 23.1257C52.746 23.2788 50.1319 23.3545 47.4999 23.3556C37.0013 23.3601 26.2184 22.1787 11.9999 20V28.7119L47.4999 28.7119L55.3919 28.7119L79.1999 28.7119Z" fill="#002633"/>
<path fill-rule="evenodd" clip-rule="evenodd" d="M81.4495 12L92 0C82.624 2.31434 56.8127 4.9261 47.1632 4.53687C31.8651 4.62326 15.0012 3.00103 0 0L10.5503 12L47.1632 11.9148L81.4495 12Z" fill="#002633"/>
<path d="M21.5 68C21.5 68 38.8441 71.3865 44.5 66C50.4387 60.3441 42.0613 47.2102 48 41.5544C53.6559 36.1678 67.5 37.5 67.5 37.5" stroke="#002633" stroke-width="8"/>
</svg>
